<?xml version="1.0" standalone="no"?><!DOCTYPE svg PUBLIC "-//W3C//DTD SVG 1.1//EN" "http://www.w3.org/Graphics/SVG/1.1/DTD/svg11.dtd"><svg t="1686836610953" class="icon" viewBox="0 0 1024 1024" version="1.1" xmlns="http://www.w3.org/2000/svg" p-id="21081" xmlns:xlink="http://www.w3.org/1999/xlink" width="200" height="200"><path d="M566.396878 574.638829h-243.287415a81.095805 81.095805 0 0 1-81.12078-81.095805V94.232976A81.095805 81.095805 0 0 1 323.109463 13.137171h608.305952A81.095805 81.095805 0 0 1 1012.51122 94.232976v399.310048a81.095805 81.095805 0 0 1-81.095805 81.095805h-243.362342l0.024976 139.413854h131.796292V774.893268H434.625561v-60.840585h131.796293v-139.413854zM931.415415 73.977756H323.109463a20.280195 20.280195 0 0 0-20.155317 17.907512l-0.124878 2.347708v399.310048c0 10.389854 7.817366 18.981463 17.907512 20.130342l2.372683 0.149854h608.305952c10.389854 0 18.956488-7.842341 20.130341-17.907513l0.124878-2.372683V94.232976a20.280195 20.280195 0 0 0-17.907512-20.130342l-2.347707-0.124878z m-105.422049 63.937561a49.95122 49.95122 0 0 1 49.951219 49.95122v207.522341a49.95122 49.95122 0 0 1-49.951219 49.95122h-401.857561a49.95122 49.95122 0 0 1-49.95122-49.95122V187.866537a49.95122 49.95122 0 0 1 49.95122-49.95122h401.857561z" fill="#8FBBFF" p-id="21082"></path></svg>
