<?xml version="1.0" standalone="no"?><!DOCTYPE svg PUBLIC "-//W3C//DTD SVG 1.1//EN" "http://www.w3.org/Graphics/SVG/1.1/DTD/svg11.dtd"><svg t="1686834595443" class="icon" viewBox="0 0 1228 1024" version="1.1" xmlns="http://www.w3.org/2000/svg" p-id="28498" xmlns:xlink="http://www.w3.org/1999/xlink" width="239.84375" height="200"><path d="M1020.928 37.0688H205.824C118.784 37.0688 76.288 80.0768 76.288 166.2976v516.5056c0 86.016 39.8336 126.7712 124.928 126.7712h124.928l-15.36 131.4816c0 15.872 8.8064 30.4128 22.8352 37.888a42.9056 42.9056 0 0 0 44.3392-2.048l248.0128-167.3216h399.7696c86.528 0 124.928-40.7552 124.928-126.7712V166.2976c0-86.1184-43.2128-129.2288-129.7408-129.2288zM363.7248 485.7856a62.464 62.464 0 1 1 0-124.7232 62.464 62.464 0 0 1 0 124.7232z m249.4464 0a62.464 62.464 0 0 1-62.6688-62.2592 62.6688 62.6688 0 0 1 125.3376 0 62.464 62.464 0 0 1-62.6688 62.2592z m249.856 0a62.464 62.464 0 0 1-62.5664-62.2592 62.464 62.464 0 0 1 125.2352 0 62.464 62.464 0 0 1-62.6688 62.2592z" fill="#52C9A0" p-id="28499"></path></svg>
