<?xml version="1.0" standalone="no"?><!DOCTYPE svg PUBLIC "-//W3C//DTD SVG 1.1//EN" "http://www.w3.org/Graphics/SVG/1.1/DTD/svg11.dtd"><svg t="1686834565908" class="icon" viewBox="0 0 1024 1024" version="1.1" xmlns="http://www.w3.org/2000/svg" p-id="25260" xmlns:xlink="http://www.w3.org/1999/xlink" width="200" height="200"><path d="M864.53 124.3h-491.4a71.21 71.21 0 0 0-71.22 71.22v299.11a71.21 71.21 0 0 0 71.22 71.22h441.55l120.65 98.83 0.37-168V195.52a71.22 71.22 0 0 0-71.17-71.22z" fill="#F0F0F0" p-id="25261"></path><path d="M650.88 359.32H159.47a71.22 71.22 0 0 0-71.22 71.22v301.11l0.37 168 120.65-98.83h441.61a71.21 71.21 0 0 0 71.21-71.22V430.54a71.21 71.21 0 0 0-71.21-71.22z" fill="#39C68C" p-id="25262"></path><path d="M277.65 537.36c-25.94 0-47 20.73-47 46.3s21 46.29 47 46.29 47-20.73 47-46.29-21.07-46.3-47-46.3z m127.52 0c-25.93 0-47 20.73-47 46.3s21 46.29 47 46.29 47-20.73 47-46.29-21.06-46.3-47-46.3z m127.53 0c-25.94 0-47 20.73-47 46.3s21 46.29 47 46.29 47-20.73 47-46.29-21.07-46.3-47-46.3z" fill="#EAEAEA" p-id="25263"></path></svg>
