<?xml version="1.0" standalone="no"?><!DOCTYPE svg PUBLIC "-//W3C//DTD SVG 1.1//EN" "http://www.w3.org/Graphics/SVG/1.1/DTD/svg11.dtd"><svg t="1686833002648" class="icon" viewBox="0 0 1024 1024" version="1.1" xmlns="http://www.w3.org/2000/svg" p-id="1810" xmlns:xlink="http://www.w3.org/1999/xlink" width="200" height="200"><path d="M285.85 619.97V195.54c0-14.53 11.81-26.35 26.35-26.35h398.25c14.54 0 26.35 11.83 26.35 26.35v424.43H285.85z" fill="#7B88FF" p-id="1811"></path><path d="M710.46 63.78H312.21c-72.65 0-131.76 59.11-131.76 131.76v632.47c0 72.65 59.11 131.76 131.76 131.76h398.25c72.65 0 131.76-59.11 131.76-131.76V195.54c0-72.65-59.11-131.76-131.76-131.76z m79.06 764.23c0 43.6-35.46 79.06-79.06 79.06H312.21c-43.6 0-79.06-35.46-79.06-79.06V725.38h556.37v102.63z m0-155.34H233.15V195.54c0-43.6 35.46-79.06 79.06-79.06h398.25c43.6 0 79.06 35.46 79.06 79.06v477.13z" fill="#999999" p-id="1812"></path><path d="M623.58 809.88c0 14.55-11.79 26.35-26.35 26.35h-187.4c-14.57 0-26.35-11.8-26.35-26.35s11.79-26.35 26.35-26.35h187.4c14.56 0 26.35 11.8 26.35 26.35z" fill="#999999" p-id="1813"></path></svg>
